<!DOCTYPE svg PUBLIC "-//W3C//DTD SVG 1.1//EN" "http://www.w3.org/Graphics/SVG/1.1/DTD/svg11.dtd">
<!-- Uploaded to: SVG Repo, www.svgrepo.com, Transformed by: SVG Repo Mixer Tools -->
<svg version="1.1" id="Uploaded to svgrepo.com" xmlns="http://www.w3.org/2000/svg" xmlns:xlink="http://www.w3.org/1999/xlink" width="800px" height="800px" viewBox="0 0 32 32" xml:space="preserve" fill="#000000">
<g id="SVGRepo_bgCarrier" stroke-width="0"/>
<g id="SVGRepo_tracerCarrier" stroke-linecap="round" stroke-linejoin="round"/>
<g id="SVGRepo_iconCarrier"> <style type="text/css"> .puchipuchi_een{fill:#fff;} </style> <path class="puchipuchi_een" d="M30,17c0,7.72-6.28,14-14,14S2,24.72,2,17C2,10.311,6.718,4.71,13,3.332v4.129 C8.948,8.739,6,12.531,6,17c0,5.514,4.486,10,10,10s10-4.486,10-10c0-4.469-2.948-8.261-7-9.539V3.332C25.282,4.71,30,10.311,30,17z M16,13c1.104,0,2-0.896,2-2V3c0-1.104-0.896-2-2-2s-2,0.896-2,2v8C14,12.104,14.896,13,16,13z"/> </g>
</svg>